<mxfile host="app.diagrams.net" modified="2021-01-09T06:53:35.466Z" agent="5.0 (X11; Linux aarch64) AppleWebKit/537.36 (KHTML, like Gecko) Chrome/86.0.4240.197 Safari/537.36" etag="F79MfbVuqNlwyIqTFhQs" version="14.1.8" type="github">
  <diagram name="Page-1" id="90a13364-a465-7bf4-72fc-28e22215d7a0">
    <mxGraphModel dx="2031" dy="1099" grid="1" gridSize="10" guides="1" tooltips="1" connect="1" arrows="1" fold="1" page="1" pageScale="1.5" pageWidth="1169" pageHeight="826" background="#ffffff" math="0" shadow="0">
      <root>
        <mxCell id="0" style=";html=1;" />
        <mxCell id="1" style=";html=1;" parent="0" />
        <mxCell id="3a17f1ce550125da-8" value="普通用户" style="whiteSpace=wrap;html=1;shadow=1;fontSize=18;fillColor=#f5f5f5;strokeColor=#666666;" parent="1" vertex="1">
          <mxGeometry x="220" y="374" width="120" height="396" as="geometry" />
        </mxCell>
        <mxCell id="50ftC789y1Jevhq3WObW-5" style="rounded=0;orthogonalLoop=1;jettySize=auto;html=1;exitX=0.167;exitY=0.112;exitDx=0;exitDy=0;exitPerimeter=0;" edge="1" parent="1" source="50ftC789y1Jevhq3WObW-1">
          <mxGeometry relative="1" as="geometry">
            <mxPoint x="339" y="460" as="targetPoint" />
          </mxGeometry>
        </mxCell>
        <mxCell id="50ftC789y1Jevhq3WObW-31" style="edgeStyle=none;rounded=0;orthogonalLoop=1;jettySize=auto;html=1;entryX=0;entryY=0.218;entryDx=0;entryDy=0;entryPerimeter=0;" edge="1" parent="1" target="50ftC789y1Jevhq3WObW-2">
          <mxGeometry relative="1" as="geometry">
            <mxPoint x="560" y="460" as="sourcePoint" />
          </mxGeometry>
        </mxCell>
        <mxCell id="50ftC789y1Jevhq3WObW-36" style="edgeStyle=none;rounded=0;orthogonalLoop=1;jettySize=auto;html=1;exitX=-0.025;exitY=0.483;exitDx=0;exitDy=0;entryX=1;entryY=0.558;entryDx=0;entryDy=0;entryPerimeter=0;exitPerimeter=0;" edge="1" parent="1" source="50ftC789y1Jevhq3WObW-1" target="3a17f1ce550125da-8">
          <mxGeometry relative="1" as="geometry" />
        </mxCell>
        <mxCell id="50ftC789y1Jevhq3WObW-1" value="&lt;span style=&quot;font-size: 18px&quot;&gt;社团管理系统&lt;/span&gt;" style="ellipse;whiteSpace=wrap;html=1;" vertex="1" parent="1">
          <mxGeometry x="460" y="420" width="120" height="360" as="geometry" />
        </mxCell>
        <mxCell id="50ftC789y1Jevhq3WObW-2" value="社团管理员" style="whiteSpace=wrap;html=1;shadow=1;fontSize=18;fillColor=#f5f5f5;strokeColor=#666666;" vertex="1" parent="1">
          <mxGeometry x="700" y="374" width="120" height="395" as="geometry" />
        </mxCell>
        <mxCell id="50ftC789y1Jevhq3WObW-3" value="" style="endArrow=classic;html=1;exitX=1;exitY=0.156;exitDx=0;exitDy=0;entryX=0.275;entryY=0.048;entryDx=0;entryDy=0;exitPerimeter=0;entryPerimeter=0;" edge="1" parent="1" source="3a17f1ce550125da-8" target="50ftC789y1Jevhq3WObW-1">
          <mxGeometry width="50" height="50" relative="1" as="geometry">
            <mxPoint x="700" y="750" as="sourcePoint" />
            <mxPoint x="750" y="700" as="targetPoint" />
          </mxGeometry>
        </mxCell>
        <mxCell id="50ftC789y1Jevhq3WObW-4" value="注册请求" style="text;html=1;strokeColor=none;fillColor=none;align=center;verticalAlign=middle;whiteSpace=wrap;rounded=0;" vertex="1" parent="1">
          <mxGeometry x="380" y="410" width="60" height="20" as="geometry" />
        </mxCell>
        <mxCell id="50ftC789y1Jevhq3WObW-6" value="注册结果" style="text;html=1;strokeColor=none;fillColor=none;align=center;verticalAlign=middle;whiteSpace=wrap;rounded=0;" vertex="1" parent="1">
          <mxGeometry x="380" y="440" width="60" height="20" as="geometry" />
        </mxCell>
        <mxCell id="50ftC789y1Jevhq3WObW-8" style="rounded=0;orthogonalLoop=1;jettySize=auto;html=1;entryX=1.008;entryY=0.21;entryDx=0;entryDy=0;entryPerimeter=0;" edge="1" parent="1">
          <mxGeometry relative="1" as="geometry">
            <mxPoint x="470" y="520" as="sourcePoint" />
            <mxPoint x="340.96000000000004" y="520.1600000000001" as="targetPoint" />
          </mxGeometry>
        </mxCell>
        <mxCell id="50ftC789y1Jevhq3WObW-9" value="登录结果" style="text;html=1;strokeColor=none;fillColor=none;align=center;verticalAlign=middle;whiteSpace=wrap;rounded=0;" vertex="1" parent="1">
          <mxGeometry x="380" y="498" width="60" height="20" as="geometry" />
        </mxCell>
        <mxCell id="50ftC789y1Jevhq3WObW-10" value="" style="endArrow=classic;html=1;exitX=1;exitY=0.156;exitDx=0;exitDy=0;exitPerimeter=0;" edge="1" parent="1">
          <mxGeometry width="50" height="50" relative="1" as="geometry">
            <mxPoint x="340" y="491.77600000000007" as="sourcePoint" />
            <mxPoint x="470" y="492" as="targetPoint" />
          </mxGeometry>
        </mxCell>
        <mxCell id="50ftC789y1Jevhq3WObW-11" value="登录信息" style="text;html=1;strokeColor=none;fillColor=none;align=center;verticalAlign=middle;whiteSpace=wrap;rounded=0;" vertex="1" parent="1">
          <mxGeometry x="380" y="469" width="60" height="20" as="geometry" />
        </mxCell>
        <mxCell id="50ftC789y1Jevhq3WObW-16" value="注册请求" style="text;html=1;strokeColor=none;fillColor=none;align=center;verticalAlign=middle;whiteSpace=wrap;rounded=0;" vertex="1" parent="1">
          <mxGeometry x="600.02" y="410" width="60" height="20" as="geometry" />
        </mxCell>
        <mxCell id="50ftC789y1Jevhq3WObW-17" value="注册结果" style="text;html=1;strokeColor=none;fillColor=none;align=center;verticalAlign=middle;whiteSpace=wrap;rounded=0;" vertex="1" parent="1">
          <mxGeometry x="600.02" y="440" width="60" height="20" as="geometry" />
        </mxCell>
        <mxCell id="50ftC789y1Jevhq3WObW-18" value="登录结果" style="text;html=1;strokeColor=none;fillColor=none;align=center;verticalAlign=middle;whiteSpace=wrap;rounded=0;" vertex="1" parent="1">
          <mxGeometry x="600.02" y="496" width="60" height="20" as="geometry" />
        </mxCell>
        <mxCell id="50ftC789y1Jevhq3WObW-19" value="登录信息" style="text;html=1;strokeColor=none;fillColor=none;align=center;verticalAlign=middle;whiteSpace=wrap;rounded=0;" vertex="1" parent="1">
          <mxGeometry x="600.02" y="470" width="60" height="20" as="geometry" />
        </mxCell>
        <mxCell id="50ftC789y1Jevhq3WObW-27" style="rounded=0;orthogonalLoop=1;jettySize=auto;html=1;entryX=1.008;entryY=0.21;entryDx=0;entryDy=0;entryPerimeter=0;" edge="1" parent="1">
          <mxGeometry relative="1" as="geometry">
            <mxPoint x="700" y="494" as="sourcePoint" />
            <mxPoint x="570.96" y="494.1600000000001" as="targetPoint" />
          </mxGeometry>
        </mxCell>
        <mxCell id="50ftC789y1Jevhq3WObW-28" value="" style="endArrow=classic;html=1;exitX=1;exitY=0.156;exitDx=0;exitDy=0;exitPerimeter=0;" edge="1" parent="1">
          <mxGeometry width="50" height="50" relative="1" as="geometry">
            <mxPoint x="580" y="514.9960000000001" as="sourcePoint" />
            <mxPoint x="700" y="515" as="targetPoint" />
          </mxGeometry>
        </mxCell>
        <mxCell id="50ftC789y1Jevhq3WObW-29" style="rounded=0;orthogonalLoop=1;jettySize=auto;html=1;exitX=0;exitY=0.144;exitDx=0;exitDy=0;entryX=1.008;entryY=0.21;entryDx=0;entryDy=0;exitPerimeter=0;entryPerimeter=0;" edge="1" parent="1" source="50ftC789y1Jevhq3WObW-2">
          <mxGeometry relative="1" as="geometry">
            <mxPoint x="679.0799999999999" y="430.00000000000006" as="sourcePoint" />
            <mxPoint x="540" y="430.2000000000001" as="targetPoint" />
          </mxGeometry>
        </mxCell>
        <mxCell id="50ftC789y1Jevhq3WObW-32" value="" style="endArrow=classic;html=1;exitX=1;exitY=0.156;exitDx=0;exitDy=0;exitPerimeter=0;" edge="1" parent="1">
          <mxGeometry width="50" height="50" relative="1" as="geometry">
            <mxPoint x="580" y="599.9960000000001" as="sourcePoint" />
            <mxPoint x="700" y="600" as="targetPoint" />
          </mxGeometry>
        </mxCell>
        <mxCell id="50ftC789y1Jevhq3WObW-34" value="系统通知" style="text;html=1;strokeColor=none;fillColor=none;align=center;verticalAlign=middle;whiteSpace=wrap;rounded=0;" vertex="1" parent="1">
          <mxGeometry x="600" y="575" width="60" height="20" as="geometry" />
        </mxCell>
        <mxCell id="50ftC789y1Jevhq3WObW-35" value="系统通知" style="text;html=1;strokeColor=none;fillColor=none;align=center;verticalAlign=middle;whiteSpace=wrap;rounded=0;" vertex="1" parent="1">
          <mxGeometry x="380" y="575" width="60" height="20" as="geometry" />
        </mxCell>
        <mxCell id="50ftC789y1Jevhq3WObW-40" value="查询社团信息请求" style="text;html=1;strokeColor=none;fillColor=none;align=center;verticalAlign=middle;whiteSpace=wrap;rounded=0;" vertex="1" parent="1">
          <mxGeometry x="369.98" y="605" width="80" height="20" as="geometry" />
        </mxCell>
        <mxCell id="50ftC789y1Jevhq3WObW-41" value="" style="endArrow=classic;html=1;exitX=1;exitY=0.156;exitDx=0;exitDy=0;exitPerimeter=0;" edge="1" parent="1">
          <mxGeometry width="50" height="50" relative="1" as="geometry">
            <mxPoint x="339.98" y="629.9960000000001" as="sourcePoint" />
            <mxPoint x="460" y="630.22" as="targetPoint" />
          </mxGeometry>
        </mxCell>
        <mxCell id="50ftC789y1Jevhq3WObW-42" value="社团信息" style="text;html=1;strokeColor=none;fillColor=none;align=center;verticalAlign=middle;whiteSpace=wrap;rounded=0;" vertex="1" parent="1">
          <mxGeometry x="380" y="630" width="60" height="20" as="geometry" />
        </mxCell>
        <mxCell id="50ftC789y1Jevhq3WObW-43" style="rounded=0;orthogonalLoop=1;jettySize=auto;html=1;entryX=1.008;entryY=0.21;entryDx=0;entryDy=0;entryPerimeter=0;" edge="1" parent="1">
          <mxGeometry relative="1" as="geometry">
            <mxPoint x="460" y="650" as="sourcePoint" />
            <mxPoint x="340.00000000000006" y="650.1600000000001" as="targetPoint" />
          </mxGeometry>
        </mxCell>
        <mxCell id="50ftC789y1Jevhq3WObW-46" value="加入社团，参加活动请求" style="text;html=1;strokeColor=none;fillColor=none;align=center;verticalAlign=middle;whiteSpace=wrap;rounded=0;" vertex="1" parent="1">
          <mxGeometry x="370" y="660" width="80" height="20" as="geometry" />
        </mxCell>
        <mxCell id="50ftC789y1Jevhq3WObW-47" value="" style="endArrow=classic;html=1;exitX=1;exitY=0.156;exitDx=0;exitDy=0;exitPerimeter=0;entryX=0.067;entryY=0.736;entryDx=0;entryDy=0;entryPerimeter=0;" edge="1" parent="1" target="50ftC789y1Jevhq3WObW-1">
          <mxGeometry width="50" height="50" relative="1" as="geometry">
            <mxPoint x="340" y="684.9960000000001" as="sourcePoint" />
            <mxPoint x="460.02" y="685.22" as="targetPoint" />
          </mxGeometry>
        </mxCell>
        <mxCell id="50ftC789y1Jevhq3WObW-48" style="rounded=0;orthogonalLoop=1;jettySize=auto;html=1;entryX=1.008;entryY=0.21;entryDx=0;entryDy=0;entryPerimeter=0;exitX=0.075;exitY=0.794;exitDx=0;exitDy=0;exitPerimeter=0;" edge="1" parent="1" source="50ftC789y1Jevhq3WObW-1">
          <mxGeometry relative="1" as="geometry">
            <mxPoint x="460.02" y="705" as="sourcePoint" />
            <mxPoint x="340.02" y="705.1600000000001" as="targetPoint" />
          </mxGeometry>
        </mxCell>
        <mxCell id="50ftC789y1Jevhq3WObW-49" value="请求结果" style="text;html=1;strokeColor=none;fillColor=none;align=center;verticalAlign=middle;whiteSpace=wrap;rounded=0;" vertex="1" parent="1">
          <mxGeometry x="380.02" y="685" width="60" height="20" as="geometry" />
        </mxCell>
        <mxCell id="50ftC789y1Jevhq3WObW-54" value="添加成员" style="text;html=1;strokeColor=none;fillColor=none;align=center;verticalAlign=middle;whiteSpace=wrap;rounded=0;" vertex="1" parent="1">
          <mxGeometry x="600.02" y="607.33" width="60" height="20" as="geometry" />
        </mxCell>
        <mxCell id="50ftC789y1Jevhq3WObW-55" style="rounded=0;orthogonalLoop=1;jettySize=auto;html=1;entryX=1.008;entryY=0.21;entryDx=0;entryDy=0;entryPerimeter=0;" edge="1" parent="1">
          <mxGeometry relative="1" as="geometry">
            <mxPoint x="699.0799999999999" y="630.33" as="sourcePoint" />
            <mxPoint x="580.02" y="630.4900000000001" as="targetPoint" />
          </mxGeometry>
        </mxCell>
        <mxCell id="50ftC789y1Jevhq3WObW-56" value="添加结果" style="text;html=1;strokeColor=none;fillColor=none;align=center;verticalAlign=middle;whiteSpace=wrap;rounded=0;" vertex="1" parent="1">
          <mxGeometry x="600.02" y="629.33" width="60" height="20" as="geometry" />
        </mxCell>
        <mxCell id="50ftC789y1Jevhq3WObW-57" value="" style="endArrow=classic;html=1;" edge="1" parent="1">
          <mxGeometry width="50" height="50" relative="1" as="geometry">
            <mxPoint x="580" y="650" as="sourcePoint" />
            <mxPoint x="700.02" y="649.9954260637707" as="targetPoint" />
          </mxGeometry>
        </mxCell>
        <mxCell id="50ftC789y1Jevhq3WObW-59" value="删除成员" style="text;html=1;strokeColor=none;fillColor=none;align=center;verticalAlign=middle;whiteSpace=wrap;rounded=0;" vertex="1" parent="1">
          <mxGeometry x="600" y="660" width="60" height="20" as="geometry" />
        </mxCell>
        <mxCell id="50ftC789y1Jevhq3WObW-60" style="rounded=0;orthogonalLoop=1;jettySize=auto;html=1;entryX=0.917;entryY=0.731;entryDx=0;entryDy=0;entryPerimeter=0;" edge="1" parent="1" target="50ftC789y1Jevhq3WObW-1">
          <mxGeometry relative="1" as="geometry">
            <mxPoint x="699.06" y="682.9999999999999" as="sourcePoint" />
            <mxPoint x="580" y="683.1600000000002" as="targetPoint" />
          </mxGeometry>
        </mxCell>
        <mxCell id="50ftC789y1Jevhq3WObW-61" value="删除结果" style="text;html=1;strokeColor=none;fillColor=none;align=center;verticalAlign=middle;whiteSpace=wrap;rounded=0;" vertex="1" parent="1">
          <mxGeometry x="600" y="682" width="60" height="20" as="geometry" />
        </mxCell>
        <mxCell id="50ftC789y1Jevhq3WObW-62" value="" style="endArrow=classic;html=1;exitX=0.925;exitY=0.786;exitDx=0;exitDy=0;exitPerimeter=0;" edge="1" parent="1" source="50ftC789y1Jevhq3WObW-1">
          <mxGeometry width="50" height="50" relative="1" as="geometry">
            <mxPoint x="579.98" y="702.67" as="sourcePoint" />
            <mxPoint x="700" y="702.6654260637705" as="targetPoint" />
          </mxGeometry>
        </mxCell>
        <mxCell id="50ftC789y1Jevhq3WObW-63" value="社团活动信息" style="text;html=1;strokeColor=none;fillColor=none;align=center;verticalAlign=middle;whiteSpace=wrap;rounded=0;" vertex="1" parent="1">
          <mxGeometry x="589.96" y="705" width="80.04" height="20" as="geometry" />
        </mxCell>
        <mxCell id="50ftC789y1Jevhq3WObW-64" style="rounded=0;orthogonalLoop=1;jettySize=auto;html=1;exitX=-0.033;exitY=0.896;exitDx=0;exitDy=0;exitPerimeter=0;entryX=1;entryY=1;entryDx=0;entryDy=0;" edge="1" parent="1" source="50ftC789y1Jevhq3WObW-2" target="50ftC789y1Jevhq3WObW-1">
          <mxGeometry relative="1" as="geometry">
            <mxPoint x="689.02" y="728" as="sourcePoint" />
            <mxPoint x="580" y="728" as="targetPoint" />
          </mxGeometry>
        </mxCell>
        <mxCell id="50ftC789y1Jevhq3WObW-65" value="发布结果" style="text;html=1;strokeColor=none;fillColor=none;align=center;verticalAlign=middle;whiteSpace=wrap;rounded=0;" vertex="1" parent="1">
          <mxGeometry x="589.96" y="727" width="60" height="20" as="geometry" />
        </mxCell>
        <mxCell id="50ftC789y1Jevhq3WObW-66" value="" style="endArrow=classic;html=1;exitX=0.783;exitY=0.911;exitDx=0;exitDy=0;exitPerimeter=0;entryX=0.008;entryY=0.944;entryDx=0;entryDy=0;entryPerimeter=0;" edge="1" parent="1" source="50ftC789y1Jevhq3WObW-1" target="50ftC789y1Jevhq3WObW-2">
          <mxGeometry width="50" height="50" relative="1" as="geometry">
            <mxPoint x="560.96" y="747.96" as="sourcePoint" />
            <mxPoint x="689.96" y="747.6654260637706" as="targetPoint" />
          </mxGeometry>
        </mxCell>
        <mxCell id="50ftC789y1Jevhq3WObW-67" value="顶层" style="text;html=1;strokeColor=none;fillColor=none;align=center;verticalAlign=middle;whiteSpace=wrap;rounded=0;fontSize=28;" vertex="1" parent="1">
          <mxGeometry x="100" y="380" width="70" height="20" as="geometry" />
        </mxCell>
        <mxCell id="50ftC789y1Jevhq3WObW-68" value="零层" style="text;html=1;strokeColor=none;fillColor=none;align=center;verticalAlign=middle;whiteSpace=wrap;rounded=0;fontSize=28;" vertex="1" parent="1">
          <mxGeometry x="120" y="890" width="70" height="20" as="geometry" />
        </mxCell>
        <mxCell id="50ftC789y1Jevhq3WObW-70" value="1.处理注册请求" style="ellipse;whiteSpace=wrap;html=1;fontSize=14;" vertex="1" parent="1">
          <mxGeometry x="370" y="920" width="160" height="80" as="geometry" />
        </mxCell>
        <mxCell id="50ftC789y1Jevhq3WObW-71" value="2.处理登录请求" style="ellipse;whiteSpace=wrap;html=1;fontSize=14;" vertex="1" parent="1">
          <mxGeometry x="660" y="910" width="160" height="80" as="geometry" />
        </mxCell>
        <mxCell id="50ftC789y1Jevhq3WObW-73" value="" style="endArrow=none;html=1;fontSize=14;" edge="1" parent="1">
          <mxGeometry width="50" height="50" relative="1" as="geometry">
            <mxPoint x="525" y="1360" as="sourcePoint" />
            <mxPoint x="655" y="1360" as="targetPoint" />
          </mxGeometry>
        </mxCell>
        <mxCell id="50ftC789y1Jevhq3WObW-74" value="" style="endArrow=none;html=1;fontSize=14;" edge="1" parent="1">
          <mxGeometry width="50" height="50" relative="1" as="geometry">
            <mxPoint x="525" y="1370" as="sourcePoint" />
            <mxPoint x="655" y="1370" as="targetPoint" />
          </mxGeometry>
        </mxCell>
        <mxCell id="50ftC789y1Jevhq3WObW-75" value="用户信息文件" style="text;html=1;align=center;verticalAlign=middle;resizable=0;points=[];autosize=1;fontSize=14;" vertex="1" parent="1">
          <mxGeometry x="540" y="1330" width="100" height="20" as="geometry" />
        </mxCell>
        <mxCell id="50ftC789y1Jevhq3WObW-76" value="" style="endArrow=classic;html=1;fontSize=14;entryX=0;entryY=0.5;entryDx=0;entryDy=0;" edge="1" parent="1" target="50ftC789y1Jevhq3WObW-70">
          <mxGeometry width="50" height="50" relative="1" as="geometry">
            <mxPoint x="230" y="960" as="sourcePoint" />
            <mxPoint x="340" y="980" as="targetPoint" />
          </mxGeometry>
        </mxCell>
        <mxCell id="50ftC789y1Jevhq3WObW-77" value="注册请求" style="text;html=1;align=center;verticalAlign=middle;resizable=0;points=[];autosize=1;fontSize=14;" vertex="1" parent="1">
          <mxGeometry x="265" y="930" width="70" height="20" as="geometry" />
        </mxCell>
        <mxCell id="50ftC789y1Jevhq3WObW-79" value="" style="endArrow=classic;startArrow=classic;html=1;fontSize=14;entryX=0.5;entryY=1;entryDx=0;entryDy=0;exitX=0.35;exitY=-0.1;exitDx=0;exitDy=0;exitPerimeter=0;" edge="1" parent="1" source="50ftC789y1Jevhq3WObW-75" target="50ftC789y1Jevhq3WObW-70">
          <mxGeometry width="50" height="50" relative="1" as="geometry">
            <mxPoint x="700" y="990" as="sourcePoint" />
            <mxPoint x="750" y="940" as="targetPoint" />
          </mxGeometry>
        </mxCell>
        <mxCell id="50ftC789y1Jevhq3WObW-80" value="" style="endArrow=classic;html=1;fontSize=14;exitX=0;exitY=1;exitDx=0;exitDy=0;" edge="1" parent="1" source="50ftC789y1Jevhq3WObW-70">
          <mxGeometry width="50" height="50" relative="1" as="geometry">
            <mxPoint x="220" y="1110" as="sourcePoint" />
            <mxPoint x="240" y="1040" as="targetPoint" />
          </mxGeometry>
        </mxCell>
        <mxCell id="50ftC789y1Jevhq3WObW-81" value="注册结果" style="text;html=1;align=center;verticalAlign=middle;resizable=0;points=[];autosize=1;fontSize=14;" vertex="1" parent="1">
          <mxGeometry x="245" y="1000" width="70" height="20" as="geometry" />
        </mxCell>
        <mxCell id="50ftC789y1Jevhq3WObW-82" value="登录信息" style="text;html=1;align=center;verticalAlign=middle;resizable=0;points=[];autosize=1;fontSize=14;" vertex="1" parent="1">
          <mxGeometry x="897" y="930" width="70" height="20" as="geometry" />
        </mxCell>
        <mxCell id="50ftC789y1Jevhq3WObW-83" value="" style="endArrow=classic;html=1;fontSize=14;" edge="1" parent="1" target="50ftC789y1Jevhq3WObW-71">
          <mxGeometry width="50" height="50" relative="1" as="geometry">
            <mxPoint x="1090" y="960" as="sourcePoint" />
            <mxPoint x="750" y="940" as="targetPoint" />
          </mxGeometry>
        </mxCell>
        <mxCell id="50ftC789y1Jevhq3WObW-84" value="" style="endArrow=classic;html=1;fontSize=14;exitX=0.925;exitY=0.825;exitDx=0;exitDy=0;exitPerimeter=0;" edge="1" parent="1" source="50ftC789y1Jevhq3WObW-71">
          <mxGeometry width="50" height="50" relative="1" as="geometry">
            <mxPoint x="700" y="990" as="sourcePoint" />
            <mxPoint x="1090" y="1000" as="targetPoint" />
          </mxGeometry>
        </mxCell>
        <mxCell id="50ftC789y1Jevhq3WObW-85" value="登录结果" style="text;html=1;align=center;verticalAlign=middle;resizable=0;points=[];autosize=1;fontSize=14;" vertex="1" parent="1">
          <mxGeometry x="870" y="990" width="70" height="20" as="geometry" />
        </mxCell>
        <mxCell id="50ftC789y1Jevhq3WObW-86" value="" style="endArrow=none;html=1;fontSize=14;" edge="1" parent="1">
          <mxGeometry width="50" height="50" relative="1" as="geometry">
            <mxPoint x="812" y="1360" as="sourcePoint" />
            <mxPoint x="942" y="1360" as="targetPoint" />
          </mxGeometry>
        </mxCell>
        <mxCell id="50ftC789y1Jevhq3WObW-87" value="" style="endArrow=none;html=1;fontSize=14;" edge="1" parent="1">
          <mxGeometry width="50" height="50" relative="1" as="geometry">
            <mxPoint x="812" y="1370" as="sourcePoint" />
            <mxPoint x="942" y="1370" as="targetPoint" />
          </mxGeometry>
        </mxCell>
        <mxCell id="50ftC789y1Jevhq3WObW-88" value="社团信息文件" style="text;html=1;align=center;verticalAlign=middle;resizable=0;points=[];autosize=1;fontSize=14;" vertex="1" parent="1">
          <mxGeometry x="827" y="1330" width="100" height="20" as="geometry" />
        </mxCell>
        <mxCell id="50ftC789y1Jevhq3WObW-90" value="" style="endArrow=classic;startArrow=classic;html=1;fontSize=14;exitX=0.63;exitY=-0.15;exitDx=0;exitDy=0;exitPerimeter=0;entryX=0.5;entryY=1;entryDx=0;entryDy=0;" edge="1" parent="1" source="50ftC789y1Jevhq3WObW-75" target="50ftC789y1Jevhq3WObW-71">
          <mxGeometry width="50" height="50" relative="1" as="geometry">
            <mxPoint x="700" y="1200" as="sourcePoint" />
            <mxPoint x="650" y="1140" as="targetPoint" />
          </mxGeometry>
        </mxCell>
        <mxCell id="50ftC789y1Jevhq3WObW-94" value="3.处理添加，&lt;br&gt;删除成员请求" style="ellipse;whiteSpace=wrap;html=1;fontSize=14;" vertex="1" parent="1">
          <mxGeometry x="840" y="1140" width="160" height="80" as="geometry" />
        </mxCell>
        <mxCell id="50ftC789y1Jevhq3WObW-95" value="" style="endArrow=classic;startArrow=classic;html=1;fontSize=14;exitX=0.9;exitY=-0.05;exitDx=0;exitDy=0;exitPerimeter=0;entryX=0.438;entryY=1.05;entryDx=0;entryDy=0;entryPerimeter=0;" edge="1" parent="1" source="50ftC789y1Jevhq3WObW-75" target="50ftC789y1Jevhq3WObW-94">
          <mxGeometry width="50" height="50" relative="1" as="geometry">
            <mxPoint x="700" y="1060" as="sourcePoint" />
            <mxPoint x="750" y="1010" as="targetPoint" />
          </mxGeometry>
        </mxCell>
        <mxCell id="50ftC789y1Jevhq3WObW-96" value="" style="endArrow=classic;html=1;fontSize=14;entryX=1;entryY=0.5;entryDx=0;entryDy=0;" edge="1" parent="1" target="50ftC789y1Jevhq3WObW-94">
          <mxGeometry width="50" height="50" relative="1" as="geometry">
            <mxPoint x="1190" y="1170" as="sourcePoint" />
            <mxPoint x="1190" y="1180" as="targetPoint" />
          </mxGeometry>
        </mxCell>
        <mxCell id="50ftC789y1Jevhq3WObW-98" value="" style="endArrow=classic;html=1;fontSize=14;exitX=1;exitY=1;exitDx=0;exitDy=0;" edge="1" parent="1" source="50ftC789y1Jevhq3WObW-94">
          <mxGeometry width="50" height="50" relative="1" as="geometry">
            <mxPoint x="1200" y="1180" as="sourcePoint" />
            <mxPoint x="1210" y="1200" as="targetPoint" />
          </mxGeometry>
        </mxCell>
        <mxCell id="50ftC789y1Jevhq3WObW-99" value="添加删除成员请求" style="text;html=1;align=center;verticalAlign=middle;resizable=0;points=[];autosize=1;fontSize=14;" vertex="1" parent="1">
          <mxGeometry x="1040" y="1140" width="130" height="20" as="geometry" />
        </mxCell>
        <mxCell id="50ftC789y1Jevhq3WObW-100" value="添加删除结果" style="text;html=1;align=center;verticalAlign=middle;resizable=0;points=[];autosize=1;fontSize=14;" vertex="1" parent="1">
          <mxGeometry x="1050" y="1210" width="100" height="20" as="geometry" />
        </mxCell>
        <mxCell id="50ftC789y1Jevhq3WObW-101" value="4.发布系统通知" style="ellipse;whiteSpace=wrap;html=1;fontSize=14;" vertex="1" parent="1">
          <mxGeometry x="280" y="1050" width="160" height="80" as="geometry" />
        </mxCell>
        <mxCell id="50ftC789y1Jevhq3WObW-102" value="" style="endArrow=classic;startArrow=classic;html=1;fontSize=14;exitX=1;exitY=0.5;exitDx=0;exitDy=0;entryX=0;entryY=0.5;entryDx=0;entryDy=0;" edge="1" parent="1" source="50ftC789y1Jevhq3WObW-101" target="50ftC789y1Jevhq3WObW-94">
          <mxGeometry width="50" height="50" relative="1" as="geometry">
            <mxPoint x="700" y="1120" as="sourcePoint" />
            <mxPoint x="750" y="1070" as="targetPoint" />
          </mxGeometry>
        </mxCell>
        <mxCell id="50ftC789y1Jevhq3WObW-103" value="6.处理查询社团信息请求" style="ellipse;whiteSpace=wrap;html=1;fontSize=14;" vertex="1" parent="1">
          <mxGeometry x="280" y="1140" width="160" height="80" as="geometry" />
        </mxCell>
        <mxCell id="50ftC789y1Jevhq3WObW-104" value="7.处理加入社团，参加活动请求" style="ellipse;whiteSpace=wrap;html=1;fontSize=14;" vertex="1" parent="1">
          <mxGeometry x="280.02000000000004" y="1230" width="160" height="80" as="geometry" />
        </mxCell>
        <mxCell id="50ftC789y1Jevhq3WObW-105" value="" style="endArrow=classic;startArrow=classic;html=1;fontSize=14;entryX=1;entryY=0.5;entryDx=0;entryDy=0;" edge="1" parent="1" source="50ftC789y1Jevhq3WObW-88" target="50ftC789y1Jevhq3WObW-103">
          <mxGeometry width="50" height="50" relative="1" as="geometry">
            <mxPoint x="700" y="1160" as="sourcePoint" />
            <mxPoint x="750" y="1110" as="targetPoint" />
          </mxGeometry>
        </mxCell>
        <mxCell id="50ftC789y1Jevhq3WObW-106" value="" style="endArrow=classic;startArrow=classic;html=1;fontSize=14;entryX=1;entryY=0.5;entryDx=0;entryDy=0;exitX=0.02;exitY=-0.15;exitDx=0;exitDy=0;exitPerimeter=0;" edge="1" parent="1" target="50ftC789y1Jevhq3WObW-104">
          <mxGeometry width="50" height="50" relative="1" as="geometry">
            <mxPoint x="839" y="1337" as="sourcePoint" />
            <mxPoint x="460" y="1220" as="targetPoint" />
          </mxGeometry>
        </mxCell>
        <mxCell id="50ftC789y1Jevhq3WObW-107" value="5.发布社团活动" style="ellipse;whiteSpace=wrap;html=1;fontSize=14;" vertex="1" parent="1">
          <mxGeometry x="940" y="1239" width="160" height="80" as="geometry" />
        </mxCell>
        <mxCell id="50ftC789y1Jevhq3WObW-108" value="" style="endArrow=classic;startArrow=classic;html=1;fontSize=14;entryX=1.019;entryY=0.663;entryDx=0;entryDy=0;entryPerimeter=0;" edge="1" parent="1" source="50ftC789y1Jevhq3WObW-75" target="50ftC789y1Jevhq3WObW-104">
          <mxGeometry width="50" height="50" relative="1" as="geometry">
            <mxPoint x="849" y="1347" as="sourcePoint" />
            <mxPoint x="450.0199999999977" y="1280" as="targetPoint" />
          </mxGeometry>
        </mxCell>
        <mxCell id="50ftC789y1Jevhq3WObW-109" value="" style="endArrow=classic;html=1;fontSize=14;entryX=1;entryY=0.5;entryDx=0;entryDy=0;" edge="1" parent="1">
          <mxGeometry width="50" height="50" relative="1" as="geometry">
            <mxPoint x="1293.43" y="1270" as="sourcePoint" />
            <mxPoint x="1103.43" y="1280" as="targetPoint" />
          </mxGeometry>
        </mxCell>
        <mxCell id="50ftC789y1Jevhq3WObW-110" value="" style="endArrow=classic;html=1;fontSize=14;exitX=1;exitY=1;exitDx=0;exitDy=0;" edge="1" parent="1">
          <mxGeometry width="50" height="50" relative="1" as="geometry">
            <mxPoint x="1079.9985424949239" y="1308.284271247462" as="sourcePoint" />
            <mxPoint x="1313.43" y="1300" as="targetPoint" />
          </mxGeometry>
        </mxCell>
        <mxCell id="50ftC789y1Jevhq3WObW-111" value="社团活动信息" style="text;html=1;align=center;verticalAlign=middle;resizable=0;points=[];autosize=1;fontSize=14;" vertex="1" parent="1">
          <mxGeometry x="1158.43" y="1240" width="100" height="20" as="geometry" />
        </mxCell>
        <mxCell id="50ftC789y1Jevhq3WObW-112" value="发布结果" style="text;html=1;align=center;verticalAlign=middle;resizable=0;points=[];autosize=1;fontSize=14;" vertex="1" parent="1">
          <mxGeometry x="1168.43" y="1310" width="70" height="20" as="geometry" />
        </mxCell>
        <mxCell id="50ftC789y1Jevhq3WObW-113" value="" style="endArrow=classic;startArrow=classic;html=1;fontSize=14;exitX=0.5;exitY=-0.05;exitDx=0;exitDy=0;exitPerimeter=0;entryX=0;entryY=1;entryDx=0;entryDy=0;" edge="1" parent="1" source="50ftC789y1Jevhq3WObW-88" target="50ftC789y1Jevhq3WObW-107">
          <mxGeometry width="50" height="50" relative="1" as="geometry">
            <mxPoint x="700" y="1220" as="sourcePoint" />
            <mxPoint x="750" y="1170" as="targetPoint" />
          </mxGeometry>
        </mxCell>
        <mxCell id="50ftC789y1Jevhq3WObW-115" value="修改结果" style="text;html=1;strokeColor=none;fillColor=none;align=center;verticalAlign=middle;whiteSpace=wrap;rounded=0;" vertex="1" parent="1">
          <mxGeometry x="375" y="549" width="60" height="20" as="geometry" />
        </mxCell>
        <mxCell id="50ftC789y1Jevhq3WObW-116" value="修改信息" style="text;html=1;strokeColor=none;fillColor=none;align=center;verticalAlign=middle;whiteSpace=wrap;rounded=0;" vertex="1" parent="1">
          <mxGeometry x="375" y="520" width="60" height="20" as="geometry" />
        </mxCell>
        <mxCell id="50ftC789y1Jevhq3WObW-117" value="" style="endArrow=classic;html=1;exitX=1;exitY=0.156;exitDx=0;exitDy=0;exitPerimeter=0;" edge="1" parent="1">
          <mxGeometry width="50" height="50" relative="1" as="geometry">
            <mxPoint x="335" y="542.7760000000001" as="sourcePoint" />
            <mxPoint x="465" y="543" as="targetPoint" />
          </mxGeometry>
        </mxCell>
        <mxCell id="50ftC789y1Jevhq3WObW-118" style="rounded=0;orthogonalLoop=1;jettySize=auto;html=1;entryX=1.008;entryY=0.21;entryDx=0;entryDy=0;entryPerimeter=0;" edge="1" parent="1">
          <mxGeometry relative="1" as="geometry">
            <mxPoint x="465" y="571" as="sourcePoint" />
            <mxPoint x="335.96000000000004" y="571.1600000000001" as="targetPoint" />
          </mxGeometry>
        </mxCell>
        <mxCell id="50ftC789y1Jevhq3WObW-119" value="修改信息" style="text;html=1;strokeColor=none;fillColor=none;align=center;verticalAlign=middle;whiteSpace=wrap;rounded=0;" vertex="1" parent="1">
          <mxGeometry x="600.02" y="518" width="60" height="20" as="geometry" />
        </mxCell>
        <mxCell id="50ftC789y1Jevhq3WObW-120" style="rounded=0;orthogonalLoop=1;jettySize=auto;html=1;entryX=1.008;entryY=0.21;entryDx=0;entryDy=0;entryPerimeter=0;" edge="1" parent="1">
          <mxGeometry relative="1" as="geometry">
            <mxPoint x="700" y="542" as="sourcePoint" />
            <mxPoint x="570.96" y="542.1600000000001" as="targetPoint" />
          </mxGeometry>
        </mxCell>
        <mxCell id="50ftC789y1Jevhq3WObW-121" value="修改结果" style="text;html=1;strokeColor=none;fillColor=none;align=center;verticalAlign=middle;whiteSpace=wrap;rounded=0;" vertex="1" parent="1">
          <mxGeometry x="600.02" y="548" width="60" height="20" as="geometry" />
        </mxCell>
        <mxCell id="50ftC789y1Jevhq3WObW-122" value="" style="endArrow=classic;html=1;exitX=1;exitY=0.156;exitDx=0;exitDy=0;exitPerimeter=0;" edge="1" parent="1">
          <mxGeometry width="50" height="50" relative="1" as="geometry">
            <mxPoint x="580" y="573.9960000000001" as="sourcePoint" />
            <mxPoint x="700" y="574" as="targetPoint" />
          </mxGeometry>
        </mxCell>
        <mxCell id="50ftC789y1Jevhq3WObW-123" value="3.处理修改请求" style="ellipse;whiteSpace=wrap;html=1;fontSize=14;" vertex="1" parent="1">
          <mxGeometry x="760" y="1040" width="160" height="80" as="geometry" />
        </mxCell>
        <mxCell id="50ftC789y1Jevhq3WObW-124" value="修改信息" style="text;html=1;align=center;verticalAlign=middle;resizable=0;points=[];autosize=1;fontSize=14;" vertex="1" parent="1">
          <mxGeometry x="1009" y="1030" width="70" height="20" as="geometry" />
        </mxCell>
        <mxCell id="50ftC789y1Jevhq3WObW-125" value="" style="endArrow=classic;html=1;fontSize=14;entryX=0.963;entryY=0.288;entryDx=0;entryDy=0;entryPerimeter=0;" edge="1" parent="1" target="50ftC789y1Jevhq3WObW-123">
          <mxGeometry width="50" height="50" relative="1" as="geometry">
            <mxPoint x="1202" y="1060" as="sourcePoint" />
            <mxPoint x="931.869706753917" y="1052.2819916215406" as="targetPoint" />
          </mxGeometry>
        </mxCell>
        <mxCell id="50ftC789y1Jevhq3WObW-126" value="修改结果" style="text;html=1;align=center;verticalAlign=middle;resizable=0;points=[];autosize=1;fontSize=14;" vertex="1" parent="1">
          <mxGeometry x="985" y="1100" width="70" height="20" as="geometry" />
        </mxCell>
        <mxCell id="50ftC789y1Jevhq3WObW-127" value="" style="endArrow=classic;html=1;fontSize=14;exitX=0.981;exitY=0.7;exitDx=0;exitDy=0;exitPerimeter=0;" edge="1" parent="1" source="50ftC789y1Jevhq3WObW-123">
          <mxGeometry width="50" height="50" relative="1" as="geometry">
            <mxPoint x="920" y="1076" as="sourcePoint" />
            <mxPoint x="1202" y="1100" as="targetPoint" />
          </mxGeometry>
        </mxCell>
        <mxCell id="50ftC789y1Jevhq3WObW-128" value="" style="endArrow=classic;startArrow=classic;html=1;fontSize=14;entryX=0.5;entryY=1;entryDx=0;entryDy=0;exitX=0.41;exitY=-0.05;exitDx=0;exitDy=0;exitPerimeter=0;" edge="1" parent="1" source="50ftC789y1Jevhq3WObW-88" target="50ftC789y1Jevhq3WObW-94">
          <mxGeometry width="50" height="50" relative="1" as="geometry">
            <mxPoint x="700" y="1220" as="sourcePoint" />
            <mxPoint x="750" y="1170" as="targetPoint" />
          </mxGeometry>
        </mxCell>
        <mxCell id="50ftC789y1Jevhq3WObW-129" value="" style="endArrow=classic;startArrow=classic;html=1;fontSize=14;exitX=0.988;exitY=0.663;exitDx=0;exitDy=0;entryX=0;entryY=0.5;entryDx=0;entryDy=0;exitPerimeter=0;" edge="1" parent="1" source="50ftC789y1Jevhq3WObW-101" target="50ftC789y1Jevhq3WObW-107">
          <mxGeometry width="50" height="50" relative="1" as="geometry">
            <mxPoint x="450" y="1100" as="sourcePoint" />
            <mxPoint x="850" y="1190" as="targetPoint" />
          </mxGeometry>
        </mxCell>
        <mxCell id="50ftC789y1Jevhq3WObW-130" value="" style="endArrow=classic;html=1;fontSize=14;exitX=0;exitY=0.5;exitDx=0;exitDy=0;" edge="1" parent="1" source="50ftC789y1Jevhq3WObW-101">
          <mxGeometry width="50" height="50" relative="1" as="geometry">
            <mxPoint x="110" y="1140" as="sourcePoint" />
            <mxPoint x="160" y="1090" as="targetPoint" />
          </mxGeometry>
        </mxCell>
        <mxCell id="50ftC789y1Jevhq3WObW-131" value="" style="endArrow=classic;startArrow=classic;html=1;fontSize=14;exitX=0.83;exitY=0.05;exitDx=0;exitDy=0;exitPerimeter=0;entryX=0.363;entryY=1;entryDx=0;entryDy=0;entryPerimeter=0;" edge="1" parent="1" source="50ftC789y1Jevhq3WObW-75" target="50ftC789y1Jevhq3WObW-123">
          <mxGeometry width="50" height="50" relative="1" as="geometry">
            <mxPoint x="613" y="1337" as="sourcePoint" />
            <mxPoint x="750" y="1000" as="targetPoint" />
          </mxGeometry>
        </mxCell>
        <mxCell id="50ftC789y1Jevhq3WObW-132" value="系统通知" style="text;html=1;align=center;verticalAlign=middle;resizable=0;points=[];autosize=1;fontSize=14;" vertex="1" parent="1">
          <mxGeometry x="185" y="1070" width="70" height="20" as="geometry" />
        </mxCell>
        <mxCell id="50ftC789y1Jevhq3WObW-133" value="1层" style="text;html=1;strokeColor=none;fillColor=none;align=center;verticalAlign=middle;whiteSpace=wrap;rounded=0;fontSize=28;" vertex="1" parent="1">
          <mxGeometry x="120" y="1490" width="70" height="20" as="geometry" />
        </mxCell>
        <mxCell id="50ftC789y1Jevhq3WObW-134" value="" style="endArrow=classic;startArrow=classic;html=1;fontSize=14;exitX=0.938;exitY=0.788;exitDx=0;exitDy=0;entryX=0.28;entryY=-0.15;entryDx=0;entryDy=0;exitPerimeter=0;entryPerimeter=0;" edge="1" parent="1" source="50ftC789y1Jevhq3WObW-101" target="50ftC789y1Jevhq3WObW-88">
          <mxGeometry width="50" height="50" relative="1" as="geometry">
            <mxPoint x="448.0799999999999" y="1113.04" as="sourcePoint" />
            <mxPoint x="950" y="1289" as="targetPoint" />
          </mxGeometry>
        </mxCell>
        <mxCell id="50ftC789y1Jevhq3WObW-135" value="" style="endArrow=classic;startArrow=classic;html=1;fontSize=14;exitX=1;exitY=1;exitDx=0;exitDy=0;entryX=0.26;entryY=0.05;entryDx=0;entryDy=0;entryPerimeter=0;" edge="1" parent="1" source="50ftC789y1Jevhq3WObW-101" target="50ftC789y1Jevhq3WObW-75">
          <mxGeometry width="50" height="50" relative="1" as="geometry">
            <mxPoint x="440.0799999999999" y="1123.04" as="sourcePoint" />
            <mxPoint x="865" y="1337" as="targetPoint" />
          </mxGeometry>
        </mxCell>
        <mxCell id="50ftC789y1Jevhq3WObW-136" value="" style="endArrow=classic;html=1;fontSize=14;" edge="1" parent="1">
          <mxGeometry width="50" height="50" relative="1" as="geometry">
            <mxPoint x="220" y="1520" as="sourcePoint" />
            <mxPoint x="390" y="1520" as="targetPoint" />
          </mxGeometry>
        </mxCell>
        <mxCell id="50ftC789y1Jevhq3WObW-137" value="判定是要求" style="ellipse;whiteSpace=wrap;html=1;fontSize=14;" vertex="1" parent="1">
          <mxGeometry x="390" y="1480" width="160" height="80" as="geometry" />
        </mxCell>
        <mxCell id="50ftC789y1Jevhq3WObW-138" value="添加删除成员请求" style="text;html=1;align=center;verticalAlign=middle;resizable=0;points=[];autosize=1;fontSize=14;" vertex="1" parent="1">
          <mxGeometry x="240" y="1480" width="130" height="20" as="geometry" />
        </mxCell>
        <mxCell id="50ftC789y1Jevhq3WObW-139" value="3.1添加成员" style="ellipse;whiteSpace=wrap;html=1;fontSize=14;" vertex="1" parent="1">
          <mxGeometry x="570" y="1420" width="160" height="80" as="geometry" />
        </mxCell>
        <mxCell id="50ftC789y1Jevhq3WObW-140" value="3.2删除成员" style="ellipse;whiteSpace=wrap;html=1;fontSize=14;" vertex="1" parent="1">
          <mxGeometry x="570" y="1530" width="160" height="80" as="geometry" />
        </mxCell>
        <mxCell id="50ftC789y1Jevhq3WObW-141" value="" style="endArrow=classic;html=1;fontSize=14;entryX=0;entryY=0.588;entryDx=0;entryDy=0;entryPerimeter=0;" edge="1" parent="1" source="50ftC789y1Jevhq3WObW-137" target="50ftC789y1Jevhq3WObW-139">
          <mxGeometry width="50" height="50" relative="1" as="geometry">
            <mxPoint x="700" y="1430" as="sourcePoint" />
            <mxPoint x="750" y="1380" as="targetPoint" />
          </mxGeometry>
        </mxCell>
        <mxCell id="50ftC789y1Jevhq3WObW-142" value="" style="endArrow=classic;html=1;fontSize=14;entryX=0;entryY=0.5;entryDx=0;entryDy=0;exitX=1;exitY=1;exitDx=0;exitDy=0;" edge="1" parent="1" source="50ftC789y1Jevhq3WObW-137" target="50ftC789y1Jevhq3WObW-140">
          <mxGeometry width="50" height="50" relative="1" as="geometry">
            <mxPoint x="535.4486973001362" y="1501.1666774039295" as="sourcePoint" />
            <mxPoint x="580" y="1477.04" as="targetPoint" />
          </mxGeometry>
        </mxCell>
        <mxCell id="50ftC789y1Jevhq3WObW-143" value="" style="endArrow=classic;html=1;fontSize=14;exitX=1;exitY=0.5;exitDx=0;exitDy=0;" edge="1" parent="1" source="50ftC789y1Jevhq3WObW-139">
          <mxGeometry width="50" height="50" relative="1" as="geometry">
            <mxPoint x="840" y="1530" as="sourcePoint" />
            <mxPoint x="920" y="1460" as="targetPoint" />
          </mxGeometry>
        </mxCell>
        <mxCell id="50ftC789y1Jevhq3WObW-144" value="添加结果" style="text;html=1;align=center;verticalAlign=middle;resizable=0;points=[];autosize=1;fontSize=14;" vertex="1" parent="1">
          <mxGeometry x="775" y="1440" width="70" height="20" as="geometry" />
        </mxCell>
        <mxCell id="50ftC789y1Jevhq3WObW-145" value="添加请求" style="text;html=1;align=center;verticalAlign=middle;resizable=0;points=[];autosize=1;fontSize=14;" vertex="1" parent="1">
          <mxGeometry x="495" y="1460" width="70" height="20" as="geometry" />
        </mxCell>
        <mxCell id="50ftC789y1Jevhq3WObW-146" value="删除请求" style="text;html=1;align=center;verticalAlign=middle;resizable=0;points=[];autosize=1;fontSize=14;" vertex="1" parent="1">
          <mxGeometry x="525" y="1530" width="70" height="20" as="geometry" />
        </mxCell>
        <mxCell id="50ftC789y1Jevhq3WObW-147" value="删除结果" style="text;html=1;align=center;verticalAlign=middle;resizable=0;points=[];autosize=1;fontSize=14;" vertex="1" parent="1">
          <mxGeometry x="775" y="1550" width="70" height="20" as="geometry" />
        </mxCell>
        <mxCell id="50ftC789y1Jevhq3WObW-148" value="" style="endArrow=classic;html=1;fontSize=14;exitX=1;exitY=0.5;exitDx=0;exitDy=0;" edge="1" parent="1">
          <mxGeometry width="50" height="50" relative="1" as="geometry">
            <mxPoint x="730" y="1570" as="sourcePoint" />
            <mxPoint x="920" y="1570" as="targetPoint" />
          </mxGeometry>
        </mxCell>
      </root>
    </mxGraphModel>
  </diagram>
</mxfile>
